<svg width="481" height="488" viewBox="0 0 481 488" fill="none" xmlns="http://www.w3.org/2000/svg">
<g clip-path="url(#clip0_2_19)">
<g filter="url(#filter0_di_2_19)">
<path d="M380.921 290.894H244.864V210.545H472.934C475.122 222.49 476.636 234.007 476.636 249.528C476.636 316.851 453.184 374.438 412.444 415.193C371.704 455.946 313.648 479.898 244.379 479.898C111.596 479.898 4.36389 374.506 4.36389 244C4.36389 113.494 111.596 8.10156 244.379 8.10156C308.839 8.10156 363.091 31.2656 404.945 69.4883L340.191 130.679C254.161 49.6474 94.8423 110.905 94.8423 244C94.8423 326.701 162.062 393.736 244.379 393.736C339.911 393.736 375.748 326.399 381.4 291.445L381.489 290.894H380.921Z" fill="#C0C7D1" stroke="#C0C7D1"/>
</g>
</g>
<defs>
<filter id="filter0_di_2_19" x="-0.136108" y="7.60156" width="481.272" height="480.797" filterUnits="userSpaceOnUse" color-interpolation-filters="sRGB">
<feFlood flood-opacity="0" result="BackgroundImageFix"/>
<feColorMatrix in="SourceAlpha" type="matrix" values="0 0 0 0 0 0 0 0 0 0 0 0 0 0 0 0 0 0 127 0" result="hardAlpha"/>
<feOffset dy="4"/>
<feGaussianBlur stdDeviation="2"/>
<feComposite in2="hardAlpha" operator="out"/>
<feColorMatrix type="matrix" values="0 0 0 0 0 0 0 0 0 0 0 0 0 0 0 0 0 0 0.25 0"/>
<feBlend mode="normal" in2="BackgroundImageFix" result="effect1_dropShadow_2_19"/>
<feBlend mode="normal" in="SourceGraphic" in2="effect1_dropShadow_2_19" result="shape"/>
<feColorMatrix in="SourceAlpha" type="matrix" values="0 0 0 0 0 0 0 0 0 0 0 0 0 0 0 0 0 0 127 0" result="hardAlpha"/>
<feOffset dy="4"/>
<feGaussianBlur stdDeviation="2"/>
<feComposite in2="hardAlpha" operator="arithmetic" k2="-1" k3="1"/>
<feColorMatrix type="matrix" values="0 0 0 0 0 0 0 0 0 0 0 0 0 0 0 0 0 0 0.25 0"/>
<feBlend mode="normal" in2="shape" result="effect2_innerShadow_2_19"/>
</filter>
<clipPath id="clip0_2_19">
<rect width="481" height="488" fill="white"/>
</clipPath>
</defs>
</svg>
