<svg width="345" height="497" viewBox="0 0 345 497" fill="none" xmlns="http://www.w3.org/2000/svg">
<path d="M313 17H-71.1C-88.7 17 -103 31.5 -103 49.3V432.7C-103 450.5 -88.7 465 -71.1 465H313C330.6 465 345 450.5 345 432.7V49.3C345 31.5 330.6 17 313 17ZM32.4 401H-34V187.2H32.5V401H32.4ZM-0.800003 158C-22.1 158 -39.3 140.7 -39.3 119.5C-39.3 98.3 -22.1 81 -0.800003 81C20.4 81 37.7 98.3 37.7 119.5C37.7 140.8 20.5 158 -0.800003 158ZM281.3 401H214.9V297C214.9 272.2 214.4 240.3 180.4 240.3C145.8 240.3 140.5 267.3 140.5 295.2V401H74.1V187.2H137.8V216.4H138.7C147.6 199.6 169.3 181.9 201.6 181.9C268.8 181.9 281.3 226.2 281.3 283.8V401Z" fill="#C0C7D1"/>
</svg>
