<svg width="413" height="512" viewBox="0 0 413 512" fill="none" xmlns="http://www.w3.org/2000/svg">
<path d="M165 8C28 8 -83 119 -83 256C-83 393 28 504 165 504C302 504 413 393 413 256C413 119 302 8 165 8ZM280 176.7C276.3 215.9 260.1 311.1 251.9 355C248.4 373.6 241.6 379.8 235 380.4C220.6 381.7 209.7 370.9 195.7 361.7C173.9 347.4 161.5 338.5 140.4 324.5C115.9 308.4 131.8 299.5 145.7 285C149.4 281.2 212.8 223.5 214 218.3C214.2 217.6 214.3 215.2 212.8 213.9C211.3 212.6 209.2 213.1 207.7 213.4C205.5 213.867 170.633 236.9 103.1 282.5C93.2333 289.3 84.2667 292.6 76.2 292.4C67.3 292.2 50.3 287.4 37.6 283.3C22.1 278.3 9.7 275.6 10.8 267C11.3333 262.533 17.5 257.967 29.3 253.3C101.567 221.833 149.767 201.067 173.9 191C242.8 162.4 257.1 157.4 266.4 157.2C268.5 157.2 273 157.7 276 160.1C277.958 161.821 279.206 164.21 279.5 166.8C280.041 170.07 280.208 173.392 280 176.7Z" fill="#C0C7D1"/>
</svg>
