<svg width="382" height="512" viewBox="0 0 382 512" fill="none" xmlns="http://www.w3.org/2000/svg">
<path d="M-34.5 63.5C-66 95 -66 145.7 -66 247V265C-66 366.3 -66 417 -34.5 448.5C-3 480 47.7 480 149 480H167C268.3 480 319 480 350.5 448.5C382 417 382 366.3 382 265V247C382 145.7 382 95 350.5 63.5C319 32 268.3 32 167 32H149C47.7 32 -3 32 -34.5 63.5ZM9.6 168.3H60.7C62.4 253.8 100.1 290 130 297.4V168.3H178.2V242C207.7 238.8 238.6 205.2 249.1 168.3H297.3C293.3 187.4 285.5 205.6 274.2 221.6C262.9 237.6 248.5 251.1 231.7 261.2C250.4 270.5 266.9 283.6 280.1 299.8C293.4 315.9 303 334.6 308.5 354.7H255.4C250.6 337.3 240.6 321.6 226.9 309.8C213.1 297.9 196.2 290.4 178.2 288.1V354.7H172.4C70.3 354.7 12 284.7 9.6 168.3Z" fill="#C0C7D1"/>
</svg>
