<svg width="481" height="488" viewBox="0 0 481 488" fill="none" xmlns="http://www.w3.org/2000/svg">
<path d="M150.9 373.4C150.9 375.4 148.6 377 145.7 377C142.4 377.3 140.1 375.7 140.1 373.4C140.1 371.4 142.4 369.8 145.3 369.8C148.3 369.5 150.9 371.1 150.9 373.4ZM119.8 368.9C119.1 370.9 121.1 373.2 124.1 373.8C126.7 374.8 129.7 373.8 130.3 371.8C130.9 369.8 129 367.5 126 366.6C123.4 365.9 120.5 366.9 119.8 368.9ZM164 367.2C161.1 367.9 159.1 369.8 159.4 372.1C159.7 374.1 162.3 375.4 165.3 374.7C168.2 374 170.2 372.1 169.9 370.1C169.6 368.2 166.9 366.9 164 367.2ZM229.8 -16C91.1 -16 -15 89.3 -15 228C-15 338.9 54.8 433.8 154.5 467.2C167.3 469.5 171.8 461.6 171.8 455.1C171.8 448.9 171.5 414.7 171.5 393.7C171.5 393.7 101.5 408.7 86.8 363.9C86.8 363.9 75.4 334.8 59 327.3C59 327.3 36.1 311.6 60.6 311.9C60.6 311.9 85.5 313.9 99.2 337.7C121.1 376.3 157.8 365.2 172.1 358.6C174.4 342.6 180.9 331.5 188.1 324.9C132.2 318.7 75.8 310.6 75.8 214.4C75.8 186.9 83.4 173.1 99.4 155.5C96.8 149 88.3 122.2 102 87.6C122.9 81.1 171 114.6 171 114.6C191 109 212.5 106.1 233.8 106.1C255.1 106.1 276.6 109 296.6 114.6C296.6 114.6 344.7 81 365.6 87.6C379.3 122.3 370.8 149 368.2 155.5C384.2 173.2 394 187 394 214.4C394 310.9 335.1 318.6 279.2 324.9C288.4 332.8 296.2 347.8 296.2 371.3C296.2 405 295.9 446.7 295.9 454.9C295.9 461.4 300.5 469.3 313.2 467C413.2 433.8 481 338.9 481 228C481 89.3 368.5 -16 229.8 -16ZM82.2 328.9C80.9 329.9 81.2 332.2 82.9 334.1C84.5 335.7 86.8 336.4 88.1 335.1C89.4 334.1 89.1 331.8 87.4 329.9C85.8 328.3 83.5 327.6 82.2 328.9ZM71.4 320.8C70.7 322.1 71.7 323.7 73.7 324.7C75.3 325.7 77.3 325.4 78 324C78.7 322.7 77.7 321.1 75.7 320.1C73.7 319.5 72.1 319.8 71.4 320.8ZM103.8 356.4C102.2 357.7 102.8 360.7 105.1 362.6C107.4 364.9 110.3 365.2 111.6 363.6C112.9 362.3 112.3 359.3 110.3 357.4C108.1 355.1 105.1 354.8 103.8 356.4ZM92.4 341.7C90.8 342.7 90.8 345.3 92.4 347.6C94 349.9 96.7 350.9 98 349.9C99.6 348.6 99.6 346 98 343.7C96.6 341.4 94 340.4 92.4 341.7Z" fill="#C0C7D1"/>
</svg>
