<svg xmlns="http://www.w3.org/2000/svg" viewBox="0 0 300 300"><g fill="none" stroke-width="2"><path stroke="#95d4f2" d="M237.5 31.04q-26.22 1.4-33.54 26.21" vector-effect="non-scaling-stroke"/><path stroke="#abe0f6" d="m203.96 57.25-3.75 12" vector-effect="non-scaling-stroke"/><path stroke="#c7eaf9" d="M200.21 69.25 187.29 109" vector-effect="non-scaling-stroke"/><path stroke="#82ccee" d="m187.29 109-1 1.25" vector-effect="non-scaling-stroke"/><path stroke="#8cc4e8" d="m186.29 110.25-4.54-14.54" vector-effect="non-scaling-stroke"/><path stroke="#95d4f2" d="M181.75 95.71q-2.44-12.32-5.92-24.57" vector-effect="non-scaling-stroke"/><path stroke="#abe0f6" d="M175.83 71.14q-2.08-8.27-5.38-16.43" vector-effect="non-scaling-stroke"/><path stroke="#c7eaf9" d="M170.45 54.71c-2.91-8.23-9.34-18.26-18.21-20.94q-3.38-1.03-10.99-.73" vector-effect="non-scaling-stroke"/><path stroke="#8cc4e8" d="M141.25 33.04h-2.5" vector-effect="non-scaling-stroke"/><path stroke="#8aadd0" d="m138.75 33.04-5.75.25" vector-effect="non-scaling-stroke"/><path stroke="#abe0f6" d="m133 33.29-26-.25" vector-effect="non-scaling-stroke"/><path stroke="#c7eaf9" d="m107 33.04-11 .17" vector-effect="non-scaling-stroke"/><path stroke="#89bddf" d="m96 33.21-1.75.08" vector-effect="non-scaling-stroke"/><path stroke="#95d4f2" d="M94.25 33.29c-12.93-1.25-28.12 13.93-35.29 23.96" vector-effect="non-scaling-stroke"/><path stroke="#c7eaf9" d="M58.96 57.25c-16 21.28-26.88 46.43-33.71 72.02a1 1 0 0 0 .47 1.13q1.34.76 2.28.07" vector-effect="non-scaling-stroke"/><path stroke="#82ccee" d="m28 130.47 8.18.22" vector-effect="non-scaling-stroke"/><path stroke="#8aadd0" d="m36.18 130.69 9.07.02" vector-effect="non-scaling-stroke"/><path stroke="#8cb8d9" d="m45.25 130.71 5.75-.25" vector-effect="non-scaling-stroke"/><path stroke="#95d4f2" d="M51 130.46c18.93-.97 28.56-12.82 33.51-29.95q1.98-6.86 8.53-26.51" vector-effect="non-scaling-stroke"/><path stroke="#abe0f6" d="M93.04 74c1.36-1.87 17.48-23.05 19.17-22" vector-effect="non-scaling-stroke"/><path stroke="#95d4f2" d="m112.21 52 2.58 9.25" vector-effect="non-scaling-stroke"/><path stroke="#abe0f6" d="M114.79 61.25c3.19 13.85 6.38 28 11.08 41.42" vector-effect="non-scaling-stroke"/><path stroke="#82ccee" d="M125.87 102.67q2.04 6.54 5.59 12.08" vector-effect="non-scaling-stroke"/><path stroke="#8cc4e8" d="M131.46 114.75q3.96 7.76 11.41 11.61c3.97 2.05 8.89 1.85 13.38 1.85" vector-effect="non-scaling-stroke"/><path stroke="#8cb8d9" d="M156.25 128.21q19.01-.09 38.03.06 8.07.06 11.83-1.08c9.46-2.87 17.63-12.34 23.18-20.19" vector-effect="non-scaling-stroke"/><path stroke="#82ccee" d="M229.29 107q4.47-5.29 8-11.25" vector-effect="non-scaling-stroke"/><path stroke="#c7eaf9" d="M237.29 95.75q7.05-10.2 13.29-20.92 12.3-21.13 24.14-42.42a1.01 1 14.3 0 0-.89-1.49l-14.33.12" vector-effect="non-scaling-stroke"/><path stroke="#8cc4e8" d="M259.5 31.04q-11-.68-22 0" vector-effect="non-scaling-stroke"/><path stroke="#54afe2" d="m259.5 31.04-12.29 23.71" vector-effect="non-scaling-stroke"/><path stroke="#38a5df" d="m247.21 54.75-13.83 27.54" vector-effect="non-scaling-stroke"/><path stroke="#1682c8" d="M233.38 82.29q-10.04-1.81-20.13-1.02-.58.04-1.25-.42a1 1 0 0 0-1.32.18l-2.13 2.48" vector-effect="non-scaling-stroke"/><path stroke="#0f91d7" d="M208.55 83.51 222 61.21" vector-effect="non-scaling-stroke"/><path stroke="#2299db" d="M222 61.21q8.75-14.57 15.5-30.17" vector-effect="non-scaling-stroke"/><path stroke="#2dade5" d="M233.29 95.75q-2.01-1.2-4.32-1.1a1.01.98 16.2 0 0-.77.41q-.7.96-.99-.31" vector-effect="non-scaling-stroke"/><path stroke="#3898d0" d="m227.21 94.75 3.04-6.21" vector-effect="non-scaling-stroke"/><path stroke="#359ed6" d="m230.25 88.54 3.13-6.25" vector-effect="non-scaling-stroke"/><path stroke="#4ab7e8" d="M237.29 95.75q-.4-1.04-1.54-1.05a1 1 0 0 0-.77.36l-1.81 2.16q-.73.87-.57-.26.09-.65.69-1.21" vector-effect="non-scaling-stroke"/><path stroke="#73caf0" d="M233.29 95.75q11.5-17.03 19.22-35.88a1 .99-56.9 0 0-.23-1.1q-1.75-1.68-4.1-1.8a1 .99-89.1 0 1-.94-.98l-.03-1.24" vector-effect="non-scaling-stroke"/><path stroke="#0c8ace" d="m208.55 83.51-3.51 4.24" vector-effect="non-scaling-stroke"/><path stroke="#4ab7e8" d="m205.04 87.75 3-10.25" vector-effect="non-scaling-stroke"/><path stroke="#2dade5" d="m208.04 77.5 5.5-17" vector-effect="non-scaling-stroke"/><path stroke="#18a1e1" d="m222 61.21 12.54-24.6q2.02-3.95-1.91-1.9c-10.84 5.66-15.6 14.38-19.09 25.79" vector-effect="non-scaling-stroke"/><path stroke="#41b5e9" d="M213.54 60.5q-4.1-.74-8.25-.31a1.01 1-18.8 0 1-.95-.46q-.67-1.07-.38-2.48" vector-effect="non-scaling-stroke"/><path stroke="#1676b9" d="m230.25 88.54-23.08-.22a1.05 1.05 0 0 0-.63.21q-1.52 1.19-1.75-.28" vector-effect="non-scaling-stroke"/><path stroke="#0f85c8" d="M227.21 94.75q-4.69 9.83-10.79 18.03" vector-effect="non-scaling-stroke"/><path stroke="#1765aa" d="M216.42 112.78q-7.83-1.39-15.51-.06a1 .98 57.9 0 1-.75-.18q-2.57-1.82-4.87.46" vector-effect="non-scaling-stroke"/><path stroke="#0f85c8" d="M195.29 113q5.46-10.72 8.29-22.62M229.29 107q-.37-1.01-1.39-1.36a1.01 1.01 0 0 0-1.04.25c-6.86 7.07-11.42 13.64-20.84 18.24" vector-effect="non-scaling-stroke"/><path stroke="#0c7abf" d="M206.02 124.13q6.12-4.5 10.4-11.35" vector-effect="non-scaling-stroke"/><path stroke="#51a8d9" d="m205.04 87.75-.25.5" vector-effect="non-scaling-stroke"/><path stroke="#54a2d3" d="m204.79 88.25-1.21 2.13" vector-effect="non-scaling-stroke"/><path stroke="#4ab7e8" d="M203.58 90.38q-7.37 10.02-16.29 18.62" vector-effect="non-scaling-stroke"/><path stroke="#73caf0" d="m208.04 77.5.01-2.46a1 1 0 0 0-.96-1.01l-5.94-.23a1 1 0 0 1-.96-1.01l.02-3.54" vector-effect="non-scaling-stroke"/><path stroke="#0c7abf" d="M195.29 113q-1.64 3.83-4.29 7.04" vector-effect="non-scaling-stroke"/><path stroke="#0f85c8" d="m191 120.04-1.21-.04" vector-effect="non-scaling-stroke"/><path stroke="#0c7abf" d="m189.79 120-3.33-8.25" vector-effect="non-scaling-stroke"/><path stroke="#0f91d7" d="m186.46 111.75-.17-1.5" vector-effect="non-scaling-stroke"/><path stroke="#197dc2" d="M156.25 128.21q.68-.66 1.75-.67" vector-effect="non-scaling-stroke"/><path stroke="#1765aa" d="M181.59 124.34q2.03.94 4.05.45a1 .9-71.7 0 0 .49-.28c.21-.21 4.25-3.55 3.66-4.51m1.21.04q1.64 5.04 6.45 7.09a1.05 1.02 48.8 0 0 .61.05q4.19-.94 7.96-3.05" vector-effect="non-scaling-stroke"/><path stroke="#1772b8" d="M186.46 111.75c-1.7-.4-5.79 3.99-7.06 4.98" vector-effect="non-scaling-stroke"/><path stroke="#0f91d7" d="m179.4 116.73-4.38-13.34" vector-effect="non-scaling-stroke"/><path stroke="#0c7abf" d="M179.4 116.73q-1.56.76-2.26 1.77a1 1 0 0 0 .1 1.26l4.35 4.58" vector-effect="non-scaling-stroke"/><path stroke="#0f85c8" d="m181.59 124.34-6.26-5.36" vector-effect="non-scaling-stroke"/><path stroke="#1f92d2" d="m127.25 60.45 17 42.34" vector-effect="non-scaling-stroke"/><path stroke="#2082c3" d="M144.25 102.79q5.58 14.32 17.93 23.14" vector-effect="non-scaling-stroke"/><path stroke="#228dcc" d="M162.18 125.93q-1.03 1.98-4.18 1.61" vector-effect="non-scaling-stroke"/><path stroke="#2299db" d="m158 127.54-3.94-.23a1 .99 76.3 0 1-.8-.49q-1.2-2.01-3.6-2.32a1.08.97 66.4 0 1-.51-.23q-5.63-4.7-9.25-11.21" vector-effect="non-scaling-stroke"/><path stroke="#18a1e1" d="m139.9 113.06-2.03-4.87" vector-effect="non-scaling-stroke"/><path stroke="#41b5e9" d="M137.87 108.19q-4.22-10.74-7.65-21.68-3.82-12.2-8.18-24.24a1 .99-20.2 0 0-1.29-.59l-3.67 1.39a1.01 1 68.6 0 1-1.28-.56q-.33-.8-1.01-1.26" vector-effect="non-scaling-stroke"/><path stroke="#0c7abf" d="m170.62 111.05 4.71 7.93" vector-effect="non-scaling-stroke"/><path stroke="#1765aa" d="M175.33 118.98q-6.06 4.27-13.15 6.95" vector-effect="non-scaling-stroke"/><path stroke="#2299db" d="M181.75 95.71c-1.61-.18-3.18.31-4.69.47q-5.8.61-2.04 7.21" vector-effect="non-scaling-stroke"/><path stroke="#18a1e1" d="M175.02 103.39q-2.67-1.91-6.43-1.63a1 1 0 0 0-.87 1.34l2.9 7.95" vector-effect="non-scaling-stroke"/><path stroke="#2082c3" d="m170.62 111.05-4.41-9.3" vector-effect="non-scaling-stroke"/><path stroke="#1f92d2" d="m166.21 101.75-14.2-42.32" vector-effect="non-scaling-stroke"/><path stroke="#2dade5" d="m137.87 108.19-3.01-6.13a1.02 1 83.1 0 0-.65-.52q-4.3-1.11-8.34 1.13" vector-effect="non-scaling-stroke"/><path stroke="#0f91d7" d="M139.9 113.06c-1.37-.05-7.25-.73-7.95-.27q-.84.54-.49 1.96" vector-effect="non-scaling-stroke"/><path stroke="#2299db" d="M122.25 51.28q1.18 3.97-2.87 2.91a.99.98 81.6 0 1-.61-.46l-3.48-5.98" vector-effect="non-scaling-stroke"/><path stroke="#41b5e9" d="m112.46 50.75-.25 1.25M93.04 74c.6-3.59 1.51-7.59 3.68-10.57 2.1-2.89 3.72-9.61 4.19-12.46" vector-effect="non-scaling-stroke"/><path stroke="#146bb0" d="M166.21 101.75q-1.23-1.39-1.87-3.17a1 1 0 0 0-.97-.67c-6.37.18-12.32 1.45-18.5.07q-2.06-.45-1.12 1.43.83 1.63.5 3.38" vector-effect="non-scaling-stroke"/><path stroke="#197dc2" d="m115.75 47.04-.46.71" vector-effect="non-scaling-stroke"/><path stroke="#228dcc" d="m115.29 47.75-2.83 3" vector-effect="non-scaling-stroke"/><path stroke="#3898d0" d="M112.46 50.75c-.73-1-3.33-6.94-3.92-6.75" vector-effect="non-scaling-stroke"/><path stroke="#228dcc" d="m150.57 56.36 1.44 3.07" vector-effect="non-scaling-stroke"/><path stroke="#1676b9" d="M152.01 59.43q-1.37.82-1.76.82-11.75.12-23 .2" vector-effect="non-scaling-stroke"/><path stroke="#228dcc" d="m127.25 60.45-5-9.17" vector-effect="non-scaling-stroke"/><path stroke="#197dc2" d="m122.25 51.28-3.4-5.94" vector-effect="non-scaling-stroke"/><path stroke="#54afe2" d="m141.25 33.04.64.9a.94.94 0 0 0 .55.39c8.59 2.38 14.49 11.92 17.81 20.21" vector-effect="non-scaling-stroke"/><path stroke="#38a5df" d="m160.25 54.54.46 1.46" vector-effect="non-scaling-stroke"/><path stroke="#2299db" d="M160.71 56q-3.63-.67-7.04.36a.98.97 3.3 0 0-.62.55q-.41.92-.54.28a.81.8-1 0 0-.66-.63l-1.28-.2" vector-effect="non-scaling-stroke"/><path stroke="#197dc2" d="M150.57 56.36q-4.72-12.81-15.42-21.31" vector-effect="non-scaling-stroke"/><path stroke="#41b5e9" d="M175.83 71.14q-3.8-1.19-7.6-.73-.16.02-.32.09-1.79.87-.88 2.05a.64.63-47.7 0 1 .03.75l-.16.23q-.41.61-.59-.1-2.23-8.89-5.6-17.43" vector-effect="non-scaling-stroke"/><path stroke="#1772b8" d="M138.75 33.04q-1.14 1.38-3.6 2.01" vector-effect="non-scaling-stroke"/><path stroke="#1765aa" d="M135.15 35.05q-8.45 4.23-16.3 10.29" vector-effect="non-scaling-stroke"/><path stroke="#1772b8" d="M118.85 45.34q-1.67.16-3.1 1.7" vector-effect="non-scaling-stroke"/><path stroke="#1765aa" d="M115.75 47.04q-2.6-1.95-3.75-5" vector-effect="non-scaling-stroke"/><path stroke="#1682c8" d="M104.04 36.5q1.87 1.95 1.9 4.55a.96.96 0 0 1-.23.65q-2.5 2.96-3.4 6.94" vector-effect="non-scaling-stroke"/><path stroke="#359ed6" d="m102.31 48.64-1.4 2.33" vector-effect="non-scaling-stroke"/><path stroke="#1f92d2" d="m100.91 50.97-7.66 7.82" vector-effect="non-scaling-stroke"/><path stroke="#1676b9" d="m93.25 58.79-1.92.94a1.02.99-47.4 0 1-.77.04c-4.95-1.76-7.47.61-11.53 1.61-3.83.94-7.36.75-11.19 1.27q-1.32.18-2.55-.27a.8.8 0 0 0-.93.3q-.29.41-.86.53" vector-effect="non-scaling-stroke"/><path stroke="#0c8ace" d="M63.5 63.21q4.73-8.86 10.75-16.92" vector-effect="non-scaling-stroke"/><path stroke="#197dc2" d="M111.5 42.29q-1.05.9-1.89.5-1.3-.61-1.14.81.02.2.07.4" vector-effect="non-scaling-stroke"/><path stroke="#38a5df" d="M108.54 44q-2.76 2.69-6.23 4.64" vector-effect="non-scaling-stroke"/><path stroke="#228dcc" d="M51 130.46c12.67-4.17 16.42-14.96 22.21-25.71" vector-effect="non-scaling-stroke"/><path stroke="#18a1e1" d="M73.21 104.75Q79.91 92.41 87 81.98q1.93-2.83-1.31-2.9l-7.74-.18" vector-effect="non-scaling-stroke"/><path stroke="#228dcc" d="M77.95 78.9q7.12-10.4 15.3-20.11" vector-effect="non-scaling-stroke"/><path stroke="#358dc7" d="M133 33.29q-11.48 2.05-21 8.75" vector-effect="non-scaling-stroke"/><path stroke="#3898d0" d="m112 42.04-.5.25" vector-effect="non-scaling-stroke"/><path stroke="#38a5df" d="m111.5 42.29-3.25-3.25" vector-effect="non-scaling-stroke"/><path stroke="#73caf0" d="m170.45 54.71-6.26-1.13a1.02 1.01 35.3 0 0-.66.11q-1.58.87-3.28.85" vector-effect="non-scaling-stroke"/><path stroke="#1f92d2" d="M94.25 33.29c-8.57 2.18-13.32 5.95-20 13" vector-effect="non-scaling-stroke"/><path stroke="#18a1e1" d="M74.25 46.29q-.54.15-1.05.08a1 .97-62.3 0 0-.85.28q-6.32 6.34-11.56 13.6" vector-effect="non-scaling-stroke"/><path stroke="#5dbfec" d="m60.79 60.25-1.83-3" vector-effect="non-scaling-stroke"/><path stroke="#73caf0" d="M107 33.04q-.67 1 2.8 3.33a.99.98-40.3 0 0 .97.07l.67-.3a.51.51 0 0 1 .73.48l-.07 1.63q-.03.84-.67.3l-.24-.2a.98.95-25.5 0 0-.68-.23q-1.25.05-2.26.92" vector-effect="non-scaling-stroke"/><path stroke="#54afe2" d="M108.25 39.04q-1.68-2.03-4.21-2.54" vector-effect="non-scaling-stroke"/><path stroke="#51a8d9" d="M104.04 36.5q-3.7-2.39-8.04-3.29" vector-effect="non-scaling-stroke"/><path stroke="#0f85c8" d="M63.5 63.21q-9.1 15.96-17.04 32.54" vector-effect="non-scaling-stroke"/><path stroke="#0c7abf" d="M46.46 95.75c-6.94 11.05-9.37 21.89-10.28 34.94" vector-effect="non-scaling-stroke"/><path stroke="#4ab7e8" d="M28 130.47q5.11-9.9 10.11-19.86c2.58-5.15 4.2-10.61 6.02-16.06q6.11-18.24 16.66-34.3" vector-effect="non-scaling-stroke"/><path stroke="#0f85c8" d="M77.95 78.9 66.5 96.79" vector-effect="non-scaling-stroke"/><path stroke="#1765aa" d="M66.5 96.79q-.7.07-.98.73a.68.68 0 0 1-.28.31q-.49.27-.54-.18a.64.62-83.7 0 0-.42-.54c-2.32-.82-8.03.65-10.77 1.35q-3.14.81-6.46.91-1.82.05-.63-1.32.77-.9.04-2.3" vector-effect="non-scaling-stroke"/><path stroke="#0f85c8" d="M73.21 104.75c-1.54-.01-10.98 1.08-9.75-2" vector-effect="non-scaling-stroke"/><path stroke="#0c7abf" d="m63.46 102.75 3.04-5.96" vector-effect="non-scaling-stroke"/><path stroke="#1765aa" d="M63.46 102.75q-7.43 13.13-13.84 26.8a1.01.99 7.3 0 1-.74.56l-3.63.6" vector-effect="non-scaling-stroke"/><path stroke="gray" d="M231.91 121.53q.33 0 .65-.08 1.58-.44-.02-.8-2.06-.46-4.21.01-1.88.41 0 .8.27.06.54.07a1 1 0 0 1 .97 1.02l-.13 5.14a.63.62-73.3 0 0 .29.55q.95.62.77-1.25-.23-2.32.14-4.62a1 1 0 0 1 1-.84m5.56 3.09-1.49-3.38a.99.99 0 0 0-.69-.57l-.31-.08a.52.51 3.2 0 0-.63.56c.06.49-.3 8.31.92 6.82a1.01.98-28.3 0 0 .22-.7l-.25-3.77a.22.21 84.7 0 1 .19-.24l.28-.02a.2.2 0 0 1 .21.12l1.56 3.4q.81 1.77 1.78.09.91-1.59 1.5-3.36.11-.31.43-.27a.41.4 6.5 0 1 .36.44l-.33 3.84a.64.63 11 0 0 .46.67q.63.18.65-.74.12-4.46-.14-6.54a.52.51-88.5 0 0-.41-.44q-.55-.1-.74.36-.83 1.94-1.76 3.84-.94 1.94-1.81-.03m50.48 30.47a.47.47 0 0 0-.47-.47h-281a.47.47 0 0 0-.47.47v1.88a.47.47 0 0 0 .47.47h281a.47.47 0 0 0 .47-.47v-1.88M79.56 235.44q-5.12-.62-9.83-3.27-1.52-.86-1.49.88l.06 4.38a1 1 0 0 0 .62.91c8.11 3.29 19.91 3.87 26.3-2.39 4.54-4.45 4.31-12.26-.28-17.07-4.09-4.28-11.25-7.24-16.44-10.1-5.65-3.11-5.32-11.56 1.25-13.53q7.68-2.3 15.31 1.43a1 1 0 0 0 1.44-.9v-4.19a1 .99-81.2 0 0-.69-.95c-8.93-2.93-26.28-1.9-27.37 10.31-.98 11.03 11.28 15.33 18.3 19.05 4.55 2.42 7.75 7.96 4.3 12.2-2.54 3.11-7.63 3.7-11.48 3.24m-28.32-9.42a.32.32 0 0 1 .3.21l5.13 13.56a.32.32 0 0 0 .3.21h5.79a.32.32 0 0 0 .3-.43l-18.98-49.35a.32.32 0 0 0-.3-.2l-5.64-.03a.32.32 0 0 0-.3.21l-18.97 49.37a.32.32 0 0 0 .3.43h5.8a.32.32 0 0 0 .31-.21l4.87-13.61a.32.32 0 0 1 .31-.21l20.78.05m64.28-4.96q6.4-.06 7.9-.17c20.14-1.48 22.07-30.18-.43-30.8q-6.81-.18-13.51-.06a1 .99 89.7 0 0-.98 1V239a1 1 0 0 0 1 1h3.75a1 .99.3 0 0 1-.98l.27-16.98a1 1 0 0 1 1-.98m81.73 8.92-25.2-39.47a.99.98 73.8 0 0-.83-.46l-5.95-.06a1 .99.3 0 0-1.01.99l-.03 48.02a1.01 1 .3 0 0 1 1h3.8a1 1 0 0 0 1-1l-.09-38.63q-.01-2.73 1.47-.44l25.52 39.61a1.02 1 73.1 0 0 .84.46l5.77-.01a1.01 1-.6 0 0 1-1.01l-.33-47.99a.99.99 0 0 0-.99-.99h-3.59a1 1 0 0 0-1 1l.1 38.55q0 2.75-1.48.43m26.55 4.77a.3.3 0 0 1-.3-.3v-16.93a.3.3 0 0 1 .3-.3l17.4.05a.3.3 0 0 0 .3-.3v-4.95a.3.3 0 0 0-.3-.3l-17.37.1a.3.3 0 0 1-.3-.3l-.09-15.97a.3.3 0 0 1 .3-.3h18.96a.3.3 0 0 0 .3-.3v-4.65a.3.3 0 0 0-.3-.3h-24.9a.3.3 0 0 0-.3.3v49.4a.3.3 0 0 0 .3.3l25.99-.01a.3.3 0 0 0 .3-.31l-.09-4.64a.3.3 0 0 0-.3-.29h-19.9m38.8-39.5a.4.4 0 0 1 .4.4v43.89a.4.4 0 0 0 .39.4l4.95.07a.4.4 0 0 0 .41-.4v-43.96a.4.4 0 0 1 .4-.4h13.7a.4.4 0 0 0 .4-.4v-4.45a.4.4 0 0 0-.4-.4h-33.88a.4.4 0 0 0-.4.39l-.1 4.45a.4.4 0 0 0 .4.41h13.73m-108.97 41.59a3.78 3.78 0 0 0-3.78-3.78 3.78 3.78 0 0 0-3.78 3.78 3.78 3.78 0 0 0 3.78 3.78 3.78 3.78 0 0 0 3.78-3.78" vector-effect="non-scaling-stroke"/><path stroke="gray" d="m39.86 199.43-7.15 19.98a1 1 0 0 0 .94 1.34h14.36a1 1 0 0 0 .94-1.34l-7.21-19.99q-.95-2.61-1.88.01m90.51-1.9q-7.21-3.12-14.99-2.17a1 1 0 0 0-.88.99v18.39a1 1 0 0 0 .96 1q8.07.32 9.87-.4 11.78-4.75 5.54-17.34a.96.96 0 0 0-.5-.47" vector-effect="non-scaling-stroke"/></g><path fill="#fff" d="M0 0h300v300H0V0Zm237.5 31.04q-26.22 1.4-33.54 26.21l-3.75 12L187.29 109l-1 1.25-4.54-14.54q-2.44-12.32-5.92-24.57-2.08-8.27-5.38-16.43c-2.91-8.23-9.34-18.26-18.21-20.94q-3.38-1.03-10.99-.73h-2.5l-5.75.25-26-.25-11 .17-1.75.08c-12.93-1.25-28.12 13.93-35.29 23.96-16 21.28-26.88 46.43-33.71 72.02a1 1 0 0 0 .47 1.13q1.34.76 2.28.07l8.18.22 9.07.02 5.75-.25c18.93-.97 28.56-12.82 33.51-29.95q1.98-6.86 8.53-26.51c1.36-1.87 17.48-23.05 19.17-22l2.58 9.25c3.19 13.85 6.38 28 11.08 41.42q2.04 6.54 5.59 12.08 3.96 7.76 11.41 11.61c3.97 2.05 8.89 1.85 13.38 1.85q19.01-.09 38.03.06 8.07.06 11.83-1.08c9.46-2.87 17.63-12.34 23.18-20.19q4.47-5.29 8-11.25 7.05-10.2 13.29-20.92 12.3-21.13 24.14-42.42a1.01 1 14.3 0 0-.89-1.49l-14.33.12q-11-.68-22 0Zm-5.59 90.49q.33 0 .65-.08 1.58-.44-.02-.8-2.06-.46-4.21.01-1.88.41 0 .8.27.06.54.07a1 1 0 0 1 .97 1.02l-.13 5.14a.63.62-73.3 0 0 .29.55q.95.62.77-1.25-.23-2.32.14-4.62a1 1 0 0 1 1-.84Zm5.56 3.09-1.49-3.38a.99.99 0 0 0-.69-.57l-.31-.08a.52.51 3.2 0 0-.63.56c.06.49-.3 8.31.92 6.82a1.01.98-28.3 0 0 .22-.7l-.25-3.77a.22.21 84.7 0 1 .19-.24l.28-.02a.2.2 0 0 1 .21.12l1.56 3.4q.81 1.77 1.78.09.91-1.59 1.5-3.36.11-.31.43-.27a.41.4 6.5 0 1 .36.44l-.33 3.84a.64.63 11 0 0 .46.67q.63.18.65-.74.12-4.46-.14-6.54a.52.51-88.5 0 0-.41-.44q-.55-.1-.74.36-.83 1.94-1.76 3.84-.94 1.94-1.81-.03Zm50.48 30.47a.47.47 0 0 0-.47-.47h-281a.47.47 0 0 0-.47.47v1.88a.47.47 0 0 0 .47.47h281a.47.47 0 0 0 .47-.47v-1.88ZM79.56 235.44q-5.12-.62-9.83-3.27-1.52-.86-1.49.88l.06 4.38a1 1 0 0 0 .62.91c8.11 3.29 19.91 3.87 26.3-2.39 4.54-4.45 4.31-12.26-.28-17.07-4.09-4.28-11.25-7.24-16.44-10.1-5.65-3.11-5.32-11.56 1.25-13.53q7.68-2.3 15.31 1.43a1 1 0 0 0 1.44-.9v-4.19a1 .99-81.2 0 0-.69-.95c-8.93-2.93-26.28-1.9-27.37 10.31-.98 11.03 11.28 15.33 18.3 19.05 4.55 2.42 7.75 7.96 4.3 12.2-2.54 3.11-7.63 3.7-11.48 3.24Zm-28.32-9.42a.32.32 0 0 1 .3.21l5.13 13.56a.32.32 0 0 0 .3.21h5.79a.32.32 0 0 0 .3-.43l-18.98-49.35a.32.32 0 0 0-.3-.2l-5.64-.03a.32.32 0 0 0-.3.21l-18.97 49.37a.32.32 0 0 0 .3.43h5.8a.32.32 0 0 0 .31-.21l4.87-13.61a.32.32 0 0 1 .31-.21l20.78.05Zm64.28-4.96q6.4-.06 7.9-.17c20.14-1.48 22.07-30.18-.43-30.8q-6.81-.18-13.51-.06a1 .99 89.7 0 0-.98 1V239a1 1 0 0 0 1 1h3.75a1 .99.3 0 0 1-.98l.27-16.98a1 1 0 0 1 1-.98Zm81.73 8.92-25.2-39.47a.99.98 73.8 0 0-.83-.46l-5.95-.06a1 .99.3 0 0-1.01.99l-.03 48.02a1.01 1 .3 0 0 1 1h3.8a1 1 0 0 0 1-1l-.09-38.63q-.01-2.73 1.47-.44l25.52 39.61a1.02 1 73.1 0 0 .84.46l5.77-.01a1.01 1-.6 0 0 1-1.01l-.33-47.99a.99.99 0 0 0-.99-.99h-3.59a1 1 0 0 0-1 1l.1 38.55q0 2.75-1.48.43Zm26.55 4.77a.3.3 0 0 1-.3-.3v-16.93a.3.3 0 0 1 .3-.3l17.4.05a.3.3 0 0 0 .3-.3v-4.95a.3.3 0 0 0-.3-.3l-17.37.1a.3.3 0 0 1-.3-.3l-.09-15.97a.3.3 0 0 1 .3-.3h18.96a.3.3 0 0 0 .3-.3v-4.65a.3.3 0 0 0-.3-.3h-24.9a.3.3 0 0 0-.3.3v49.4a.3.3 0 0 0 .3.3l25.99-.01a.3.3 0 0 0 .3-.31l-.09-4.64a.3.3 0 0 0-.3-.29h-19.9Zm38.8-39.5a.4.4 0 0 1 .4.4v43.89a.4.4 0 0 0 .39.4l4.95.07a.4.4 0 0 0 .41-.4v-43.96a.4.4 0 0 1 .4-.4h13.7a.4.4 0 0 0 .4-.4v-4.45a.4.4 0 0 0-.4-.4h-33.88a.4.4 0 0 0-.4.39l-.1 4.45a.4.4 0 0 0 .4.41h13.73Zm-108.97 41.59a3.78 3.78 0 0 0-3.78-3.78 3.78 3.78 0 0 0-3.78 3.78 3.78 3.78 0 0 0 3.78 3.78 3.78 3.78 0 0 0 3.78-3.78Z"/><path fill="#1989d0" d="m259.5 31.04-12.29 23.71-13.83 27.54q-10.04-1.81-20.13-1.02-.58.04-1.25-.42a1 1 0 0 0-1.32.18l-2.13 2.48L222 61.21q8.75-14.57 15.5-30.17 11-.68 22 0Z"/><path fill="#8fd4f3" d="M237.29 95.75q-.4-1.04-1.54-1.05a1 1 0 0 0-.77.36l-1.81 2.16q-.73.87-.57-.26.09-.65.69-1.21 11.5-17.03 19.22-35.88a1 .99-56.9 0 0-.23-1.1q-1.75-1.68-4.1-1.8a1 .99-89.1 0 1-.94-.98l-.03-1.24 12.29-23.71 14.33-.12a1.01 1 14.3 0 1 .89 1.49q-11.84 21.29-24.14 42.42-6.24 10.72-13.29 20.92Z"/><path fill="#2ba9e5" d="M237.5 31.04q-6.75 15.6-15.5 30.17l12.54-24.6q2.02-3.95-1.91-1.9c-10.84 5.66-15.6 14.38-19.09 25.79q-4.1-.74-8.25-.31a1.01 1-18.8 0 1-.95-.46q-.67-1.07-.38-2.48 7.32-24.81 33.54-26.21ZM94.25 33.29c-8.57 2.18-13.32 5.95-20 13q-.54.15-1.05.08a1 .97-62.3 0 0-.85.28q-6.32 6.34-11.56 13.6l-1.83-3c7.17-10.03 22.36-25.21 35.29-23.96Z"/><path fill="#8fd4f3" d="M107 33.04q-.67 1 2.8 3.33a.99.98-40.3 0 0 .97.07l.67-.3a.51.51 0 0 1 .73.48l-.07 1.63q-.03.84-.67.3l-.24-.2a.98.95-25.5 0 0-.68-.23q-1.25.05-2.26.92-1.68-2.03-4.21-2.54-3.7-2.39-8.04-3.29l11-.17Z"/><path fill="#56c0ed" d="m107 33.04 26 .25q-11.48 2.05-21 8.75l-.5.25-3.25-3.25q1.01-.87 2.26-.92a.98.95-25.5 0 1 .68.23l.24.2q.64.54.67-.3l.07-1.63a.51.51 0 0 0-.73-.48l-.67.3a.99.98-40.3 0 1-.97-.07q-3.47-2.33-2.8-3.33Z"/><path fill="#145aa0" d="M138.75 33.04q-1.14 1.38-3.6 2.01-8.45 4.23-16.3 10.29-1.67.16-3.1 1.7-2.6-1.95-3.75-5 9.52-6.7 21-8.75l5.75-.25Z"/><path fill="#1989d0" d="M138.75 33.04h2.5l.64.9a.94.94 0 0 0 .55.39c8.59 2.38 14.49 11.92 17.81 20.21l.46 1.46q-3.63-.67-7.04.36a.98.97 3.3 0 0-.62.55q-.41.92-.54.28a.81.8-1 0 0-.66-.63l-1.28-.2q-4.72-12.81-15.42-21.31 2.46-.63 3.6-2.01Z"/><path fill="#8fd4f3" d="M141.25 33.04q7.61-.3 10.99.73c8.87 2.68 15.3 12.71 18.21 20.94l-6.26-1.13a1.02 1.01 35.3 0 0-.66.11q-1.58.87-3.28.85c-3.32-8.29-9.22-17.83-17.81-20.21a.94.94 0 0 1-.55-.39l-.64-.9Z"/><path fill="#137bbf" d="m94.25 33.29 1.75-.08q4.34.9 8.04 3.29 1.87 1.95 1.9 4.55a.96.96 0 0 1-.23.65q-2.5 2.96-3.4 6.94l-1.4 2.33-7.66 7.82-1.92.94a1.02.99-47.4 0 1-.77.04c-4.95-1.76-7.47.61-11.53 1.61-3.83.94-7.36.75-11.19 1.27q-1.32.18-2.55-.27a.8.8 0 0 0-.93.3q-.29.41-.86.53 4.73-8.86 10.75-16.92c6.68-7.05 11.43-10.82 20-13Z"/><path fill="#0499dd" d="m222 61.21-13.45 22.3-3.51 4.24 3-10.25 5.5-17c3.49-11.41 8.25-20.13 19.09-25.79q3.93-2.05 1.91 1.9L222 61.21Z"/><path fill="#1970b3" d="M135.15 35.05q10.7 8.5 15.42 21.31l1.44 3.07q-1.37.82-1.76.82-11.75.12-23 .2l-5-9.17-3.4-5.94q7.85-6.06 16.3-10.29Z"/><path fill="#1989d0" d="M104.04 36.5q2.53.51 4.21 2.54l3.25 3.25q-1.05.9-1.89.5-1.3-.61-1.14.81.02.2.07.4-2.76 2.69-6.23 4.64.9-3.98 3.4-6.94a.96.96 0 0 0 .23-.65q-.03-2.6-1.9-4.55Z"/><path fill="#1970b3" d="m111.5 42.29.5-.25q1.15 3.05 3.75 5l-.46.71-2.83 3c-.73-1-3.33-6.94-3.92-6.75q-.05-.2-.07-.4-.16-1.42 1.14-.81.84.4 1.89-.5Z"/><path fill="#56c0ed" d="M108.54 44c.59-.19 3.19 5.75 3.92 6.75l-.25 1.25c-1.69-1.05-17.81 20.13-19.17 22 .6-3.59 1.51-7.59 3.68-10.57 2.1-2.89 3.72-9.61 4.19-12.46l1.4-2.33q3.47-1.95 6.23-4.64Z"/><path fill="#1989d0" d="m118.85 45.34 3.4 5.94q1.18 3.97-2.87 2.91a.99.98 81.6 0 1-.61-.46l-3.48-5.98.46-.71q1.43-1.54 3.1-1.7Z"/><path fill="#0499dd" d="M74.25 46.29q-6.02 8.06-10.75 16.92-9.1 15.96-17.04 32.54c-6.94 11.05-9.37 21.89-10.28 34.94l-8.18-.22q5.11-9.9 10.11-19.86c2.58-5.15 4.2-10.61 6.02-16.06q6.11-18.24 16.66-34.3 5.24-7.26 11.56-13.6a1 .97-62.3 0 1 .85-.28q.51.07 1.05-.08Z"/><path fill="#2ba9e5" d="m115.29 47.75 3.48 5.98a.99.98 81.6 0 0 .61.46q4.05 1.06 2.87-2.91l5 9.17 17 42.34q5.58 14.32 17.93 23.14-1.03 1.98-4.18 1.61l-3.94-.23a1 .99 76.3 0 1-.8-.49q-1.2-2.01-3.6-2.32a1.08.97 66.4 0 1-.51-.23q-5.63-4.7-9.25-11.21l-2.03-4.87q-4.22-10.74-7.65-21.68-3.82-12.2-8.18-24.24a1 .99-20.2 0 0-1.29-.59l-3.67 1.39a1.01 1 68.6 0 1-1.28-.56q-.33-.8-1.01-1.26L112.21 52l.25-1.25 2.83-3Zm-14.38 3.22c-.47 2.85-2.09 9.57-4.19 12.46-2.17 2.98-3.08 6.98-3.68 10.57q-6.55 19.65-8.53 26.51c-4.95 17.13-14.58 28.98-33.51 29.95 12.67-4.17 16.42-14.96 22.21-25.71Q79.91 92.41 87 81.98q1.93-2.83-1.31-2.9l-7.74-.18q7.12-10.4 15.3-20.11l7.66-7.82Z"/><path fill="#56c0ed" d="M170.45 54.71q3.3 8.16 5.38 16.43-3.8-1.19-7.6-.73-.16.02-.32.09-1.79.87-.88 2.05a.64.63-47.7 0 1 .03.75l-.16.23q-.41.61-.59-.1-2.23-8.89-5.6-17.43l-.46-1.46q1.7.02 3.28-.85a1.02 1.01 35.3 0 1 .66-.11l6.26 1.13Zm76.76.04.03 1.24a1 .99-89.1 0 0 .94.98q2.35.12 4.1 1.8a1 .99-56.9 0 1 .23 1.1q-7.72 18.85-19.22 35.88-2.01-1.2-4.32-1.1a1.01.98 16.2 0 0-.77.41q-.7.96-.99-.31l3.04-6.21 3.13-6.25 13.83-27.54Z"/><path fill="#2ba9e5" d="M160.71 56q3.37 8.54 5.6 17.43.18.71.59.1l.16-.23a.64.63-47.7 0 0-.03-.75q-.91-1.18.88-2.05.16-.07.32-.09 3.8-.46 7.6.73 3.48 12.25 5.92 24.57c-1.61-.18-3.18.31-4.69.47q-5.8.61-2.04 7.21-2.67-1.91-6.43-1.63a1 1 0 0 0-.87 1.34l2.9 7.95-4.41-9.3-14.2-42.32-1.44-3.07 1.28.2a.81.8-1 0 1 .66.63q.13.64.54-.28a.98.97 3.3 0 1 .62-.55q3.41-1.03 7.04-.36Z"/><path fill="#8fd4f3" d="m58.96 57.25 1.83 3q-10.55 16.06-16.66 34.3c-1.82 5.45-3.44 10.91-6.02 16.06q-5 9.96-10.11 19.86-.94.69-2.28-.07a1 1 0 0 1-.47-1.13c6.83-25.59 17.71-50.74 33.71-72.02Z"/><path fill="#56c0ed" d="M203.96 57.25q-.29 1.41.38 2.48a1.01 1-18.8 0 0 .95.46q4.15-.43 8.25.31l-5.5 17 .01-2.46a1 1 0 0 0-.96-1.01l-5.94-.23a1 1 0 0 1-.96-1.01l.02-3.54 3.75-12Z"/><path fill="#1970b3" d="M93.25 58.79q-8.18 9.71-15.3 20.11L66.5 96.79q-.7.07-.98.73a.68.68 0 0 1-.28.31q-.49.27-.54-.18a.64.62-83.7 0 0-.42-.54c-2.32-.82-8.03.65-10.77 1.35q-3.14.81-6.46.91-1.82.05-.63-1.32.77-.9.04-2.3Q54.4 79.17 63.5 63.21q.57-.12.86-.53a.8.8 0 0 1 .93-.3q1.23.45 2.55.27c3.83-.52 7.36-.33 11.19-1.27 4.06-1 6.58-3.37 11.53-1.61a1.02.99-47.4 0 0 .77-.04l1.92-.94Z"/><path fill="#137bbf" d="m152.01 59.43 14.2 42.32q-1.23-1.39-1.87-3.17a1 1 0 0 0-.97-.67c-6.37.18-12.32 1.45-18.5.07q-2.06-.45-1.12 1.43.83 1.63.5 3.38l-17-42.34q11.25-.08 23-.2.39 0 1.76-.82Z"/><path fill="#56c0ed" d="M114.79 61.25q.68.46 1.01 1.26a1.01 1 68.6 0 0 1.28.56l3.67-1.39a1 .99-20.2 0 1 1.29.59q4.36 12.04 8.18 24.24 3.43 10.94 7.65 21.68l-3.01-6.13a1.02 1 83.1 0 0-.65-.52q-4.3-1.11-8.34 1.13c-4.7-13.42-7.89-27.57-11.08-41.42Z"/><path fill="#8fd4f3" d="m200.21 69.25-.02 3.54a1 1 0 0 0 .96 1.01l5.94.23a1 1 0 0 1 .96 1.01l-.01 2.46-3 10.25-.25.5-1.21 2.13q-7.37 10.02-16.29 18.62l12.92-39.75Z"/><path fill="#0499dd" d="M73.21 104.75c-1.54-.01-10.98 1.08-9.75-2l3.04-5.96L77.95 78.9l7.74.18q3.24.07 1.31 2.9-7.09 10.43-13.79 22.77Z"/><path fill="#137bbf" d="m233.38 82.29-3.13 6.25-23.08-.22a1.05 1.05 0 0 0-.63.21q-1.52 1.19-1.75-.28l.25-.5 3.51-4.24 2.13-2.48a1 1 0 0 1 1.32-.18q.67.46 1.25.42 10.09-.79 20.13 1.02Z"/><path fill="#1970b3" d="M204.79 88.25q.23 1.47 1.75.28a1.05 1.05 0 0 1 .63-.21l23.08.22-3.04 6.21q-4.69 9.83-10.79 18.03-7.83-1.39-15.51-.06a1 .98 57.9 0 1-.75-.18q-2.57-1.82-4.87.46 5.46-10.72 8.29-22.62l1.21-2.13Z"/><path fill="#0499dd" d="M203.58 90.38q-2.83 11.9-8.29 22.62-1.64 3.83-4.29 7.04l-1.21-.04-3.33-8.25-.17-1.5 1-1.25q8.92-8.6 16.29-18.62Zm29.71 5.37q-.6.56-.69 1.21-.16 1.13.57.26l1.81-2.16a1 1 0 0 1 .77-.36q1.14.01 1.54 1.05-3.53 5.96-8 11.25-.37-1.01-1.39-1.36a1.01 1.01 0 0 0-1.04.25c-6.86 7.07-11.42 13.64-20.84 18.24q6.12-4.5 10.4-11.35 6.1-8.2 10.79-18.03.29 1.27.99.31a1.01.98 16.2 0 1 .77-.41q2.31-.1 4.32 1.1Z"/><path fill="#1989d0" d="m181.75 95.71 4.54 14.54.17 1.5c-1.7-.4-5.79 3.99-7.06 4.98l-4.38-13.34q-3.76-6.6 2.04-7.21c1.51-.16 3.08-.65 4.69-.47Z"/><path fill="#145aa0" d="M46.46 95.75q.73 1.4-.04 2.3-1.19 1.37.63 1.32 3.32-.1 6.46-.91c2.74-.7 8.45-2.17 10.77-1.35a.64.62-83.7 0 1 .42.54q.05.45.54.18a.68.68 0 0 0 .28-.31q.28-.66.98-.73l-3.04 5.96q-7.43 13.13-13.84 26.8a1.01.99 7.3 0 1-.74.56l-3.63.6-9.07-.02c.91-13.05 3.34-23.89 10.28-34.94Zm119.75 6 4.41 9.3 4.71 7.93q-6.06 4.27-13.15 6.95-12.35-8.82-17.93-23.14.33-1.75-.5-3.38-.94-1.88 1.12-1.43c6.18 1.38 12.13.11 18.5-.07a1 1 0 0 1 .97.67q.64 1.78 1.87 3.17Z"/><path fill="#0499dd" d="m137.87 108.19 2.03 4.87c-1.37-.05-7.25-.73-7.95-.27q-.84.54-.49 1.96-3.55-5.54-5.59-12.08 4.04-2.24 8.34-1.13a1.02 1 83.1 0 1 .65.52l3.01 6.13Zm37.15-4.8 4.38 13.34q-1.56.76-2.26 1.77a1 1 0 0 0 .1 1.26l4.35 4.58-6.26-5.36-4.71-7.93-2.9-7.95a1 1 0 0 1 .87-1.34q3.76-.28 6.43 1.63Z"/><path fill="#1970b3" d="M63.46 102.75c-1.23 3.08 8.21 1.99 9.75 2-5.79 10.75-9.54 21.54-22.21 25.71l-5.75.25 3.63-.6a1.01.99 7.3 0 0 .74-.56q6.41-13.67 13.84-26.8ZM229.29 107c-5.55 7.85-13.72 17.32-23.18 20.19q-3.76 1.14-11.83 1.08-19.02-.15-38.03-.06.68-.66 1.75-.67 3.15.37 4.18-1.61 7.09-2.68 13.15-6.95l6.26 5.36q2.03.94 4.05.45a1 .9-71.7 0 0 .49-.28c.21-.21 4.25-3.55 3.66-4.51l1.21.04q1.64 5.04 6.45 7.09a1.05 1.02 48.8 0 0 .61.05q4.19-.94 7.96-3.05c9.42-4.6 13.98-11.17 20.84-18.24a1.01 1.01 0 0 1 1.04-.25q1.02.35 1.39 1.36Z"/><path fill="#145aa0" d="m186.46 111.75 3.33 8.25c.59.96-3.45 4.3-3.66 4.51a1 .9-71.7 0 1-.49.28q-2.02.49-4.05-.45l-4.35-4.58a1 1 0 0 1-.1-1.26q.7-1.01 2.26-1.77c1.27-.99 5.36-5.38 7.06-4.98Zm29.96 1.03q-4.28 6.85-10.4 11.35-3.77 2.11-7.96 3.05a1.05 1.02 48.8 0 1-.61-.05q-4.81-2.05-6.45-7.09 2.65-3.21 4.29-7.04 2.3-2.28 4.87-.46a1 .98 57.9 0 0 .75.18q7.68-1.33 15.51.06Z"/><path fill="#1989d0" d="M139.9 113.06q3.62 6.51 9.25 11.21a1.08.97 66.4 0 0 .51.23q2.4.31 3.6 2.32a1 .99 76.3 0 0 .8.49l3.94.23q-1.07.01-1.75.67c-4.49 0-9.41.2-13.38-1.85q-7.45-3.85-11.41-11.61-.35-1.42.49-1.96c.7-.46 6.58.22 7.95.27Z"/><path d="M230.91 122.37q-.37 2.3-.14 4.62.18 1.87-.77 1.25a.63.62-73.3 0 1-.29-.55l.13-5.14a1 1 0 0 0-.97-1.02q-.27-.01-.54-.07-1.88-.39 0-.8 2.15-.47 4.21-.01 1.6.36.02.8-.32.08-.65.08a1 1 0 0 0-1 .84Zm6.56 2.25q.87 1.97 1.81.03.93-1.9 1.76-3.84.19-.46.74-.36a.52.51-88.5 0 1 .41.44q.26 2.08.14 6.54-.02.92-.65.74a.64.63 11 0 1-.46-.67l.33-3.84a.41.4 6.5 0 0-.36-.44q-.32-.04-.43.27-.59 1.77-1.5 3.36-.97 1.68-1.78-.09l-1.56-3.4a.2.2 0 0 0-.21-.12l-.28.02a.22.21 84.7 0 0-.19.24l.25 3.77a1.01.98-28.3 0 1-.22.7c-1.22 1.49-.86-6.33-.92-6.82a.52.51 3.2 0 1 .63-.56l.31.08a.99.99 0 0 1 .69.57l1.49 3.38Z"/><rect width="281.94" height="2.82" x="6.01" y="154.62" rx=".47"/><path d="M79.56 235.44c3.85.46 8.94-.13 11.48-3.24 3.45-4.24.25-9.78-4.3-12.2-7.02-3.72-19.28-8.02-18.3-19.05 1.09-12.21 18.44-13.24 27.37-10.31a1 .99-81.2 0 1 .69.95v4.19a1 1 0 0 1-1.44.9q-7.63-3.73-15.31-1.43c-6.57 1.97-6.9 10.42-1.25 13.53 5.19 2.86 12.35 5.82 16.44 10.1 4.59 4.81 4.82 12.62.28 17.07-6.39 6.26-18.19 5.68-26.3 2.39a1 1 0 0 1-.62-.91l-.06-4.38q-.03-1.74 1.49-.88 4.71 2.65 9.83 3.27Zm-28.32-9.42-20.78-.05a.32.32 0 0 0-.31.21l-4.87 13.61a.32.32 0 0 1-.31.21h-5.8a.32.32 0 0 1-.3-.43l18.97-49.37a.32.32 0 0 1 .3-.21l5.64.03a.32.32 0 0 1 .3.2l18.98 49.35a.32.32 0 0 1-.3.43h-5.79a.32.32 0 0 1-.3-.21l-5.13-13.56a.32.32 0 0 0-.3-.21Zm-11.38-26.59-7.15 19.98a1 1 0 0 0 .94 1.34h14.36a1 1 0 0 0 .94-1.34l-7.21-19.99q-.95-2.61-1.88.01Zm74.66 22.61-.27 16.98a1 .99.3 0 1-1 .98h-3.75a1 1 0 0 1-1-1v-47.97a1 .99 89.7 0 1 .98-1q6.7-.12 13.51.06c22.5.62 20.57 29.32.43 30.8q-1.5.11-7.9.17a1 1 0 0 0-1 .98Zm15.85-24.51q-7.21-3.12-14.99-2.17a1 1 0 0 0-.88.99v18.39a1 1 0 0 0 .96 1q8.07.32 9.87-.4 11.78-4.75 5.54-17.34a.96.96 0 0 0-.5-.47Zm66.88 32.45q1.48 2.32 1.48-.43l-.1-38.55a1 1 0 0 1 1-1h3.59a.99.99 0 0 1 .99.99l.33 47.99a1.01 1-.6 0 1-1 1.01l-5.77.01a1.02 1 73.1 0 1-.84-.46l-25.52-39.61q-1.48-2.29-1.47.44l.09 38.63a1 1 0 0 1-1 1h-3.8a1.01 1 .3 0 1-1-1l.03-48.02a1 .99.3 0 1 1.01-.99l5.95.06a.99.98 73.8 0 1 .83.46l25.2 39.47Zm26.55 4.77h19.9a.3.3 0 0 1 .3.29l.09 4.64a.3.3 0 0 1-.3.31l-25.99.01a.3.3 0 0 1-.3-.3v-49.4a.3.3 0 0 1 .3-.3h24.9a.3.3 0 0 1 .3.3v4.65a.3.3 0 0 1-.3.3h-18.96a.3.3 0 0 0-.3.3l.09 15.97a.3.3 0 0 0 .3.3l17.37-.1a.3.3 0 0 1 .3.3v4.95a.3.3 0 0 1-.3.3l-17.4-.05a.3.3 0 0 0-.3.3v16.93a.3.3 0 0 0 .3.3Zm38.8-39.5h-13.73a.4.4 0 0 1-.4-.41l.1-4.45a.4.4 0 0 1 .4-.39h33.88a.4.4 0 0 1 .4.4v4.45a.4.4 0 0 1-.4.4h-13.7a.4.4 0 0 0-.4.4v43.96a.4.4 0 0 1-.41.4l-4.95-.07a.4.4 0 0 1-.39-.4v-43.89a.4.4 0 0 0-.4-.4Z"/><path fill="#fff" d="M130.37 197.53a.96.96 0 0 1 .5.47q6.24 12.59-5.54 17.34-1.8.72-9.87.4a1 1 0 0 1-.96-1v-18.39a1 1 0 0 1 .88-.99q7.78-.95 14.99 2.17Zm-90.51 1.9q.93-2.62 1.88-.01l7.21 19.99a1 1 0 0 1-.94 1.34H33.65a1 1 0 0 1-.94-1.34l7.15-19.98Z"/><circle cx="149.85" cy="236.84" r="3.78"/></svg>