<svg width="496" height="512" viewBox="0 0 496 512" fill="none" xmlns="http://www.w3.org/2000/svg">
<g filter="url(#filter0_dd_1_5)">
<path d="M392.8 305.2H252.5V220.9H487.682C489.939 233.432 491.5 245.516 491.5 261.8C491.5 332.434 467.317 392.853 425.306 435.612C383.296 478.37 323.429 503.5 252 503.5C115.076 503.5 4.5 392.924 4.5 256C4.5 119.076 115.076 8.5 252 8.5C318.47 8.5 374.414 32.8033 417.573 72.9058L350.8 137.106C262.087 52.0891 97.8 116.359 97.8 256C97.8 342.768 167.116 413.1 252 413.1C350.511 413.1 387.466 342.451 393.294 305.778L393.386 305.2H392.8Z" fill="#C0C7D1" stroke="#C0C7D1"/>
</g>
<defs>
<filter id="filter0_dd_1_5" x="0" y="0" width="496" height="520" filterUnits="userSpaceOnUse" color-interpolation-filters="sRGB">
<feFlood flood-opacity="0" result="BackgroundImageFix"/>
<feColorMatrix in="SourceAlpha" type="matrix" values="0 0 0 0 0 0 0 0 0 0 0 0 0 0 0 0 0 0 127 0" result="hardAlpha"/>
<feOffset dy="4"/>
<feGaussianBlur stdDeviation="2"/>
<feComposite in2="hardAlpha" operator="out"/>
<feColorMatrix type="matrix" values="0 0 0 0 0 0 0 0 0 0 0 0 0 0 0 0 0 0 0.25 0"/>
<feBlend mode="normal" in2="BackgroundImageFix" result="effect1_dropShadow_1_5"/>
<feColorMatrix in="SourceAlpha" type="matrix" values="0 0 0 0 0 0 0 0 0 0 0 0 0 0 0 0 0 0 127 0" result="hardAlpha"/>
<feOffset dy="4"/>
<feGaussianBlur stdDeviation="2"/>
<feComposite in2="hardAlpha" operator="out"/>
<feColorMatrix type="matrix" values="0 0 0 0 0 0 0 0 0 0 0 0 0 0 0 0 0 0 0.25 0"/>
<feBlend mode="normal" in2="effect1_dropShadow_1_5" result="effect2_dropShadow_1_5"/>
<feBlend mode="normal" in="SourceGraphic" in2="effect2_dropShadow_1_5" result="shape"/>
</filter>
</defs>
</svg>
